<?xml version="1.0" encoding="UTF-8" standalone="no"?>
<!DOCTYPE svg PUBLIC "-//W3C//DTD SVG 1.1//EN" "http://www.w3.org/Graphics/SVG/1.1/DTD/svg11.dtd">
<svg version="1.1" xmlns="http://www.w3.org/2000/svg" xmlns:xlink="http://www.w3.org/1999/xlink" preserveAspectRatio="xMidYMid meet" viewBox="0 0 100 73" width="100" height="73"><defs><path d="M17.05 46.37C14.77 38.04 10.05 30.59 7.32 22.4C5.9 18.15 5.08 13.29 7.16 9.32C8.83 6.12 12.11 4.07 15.44 2.67C18.76 1.27 22.44 0.35 25.97 1.05C26.13 1.44 25.65 1.76 25.25 1.89C20.64 3.47 15.68 5.63 13.6 10.05C11.74 14.01 12.76 18.7 14.22 22.83C16.42 29 19.52 34.8 21.95 40.89C23.21 44.07 24.3 47.36 24.66 50.76C25.02 54.16 24.62 57.72 23.04 60.75C21.96 62.85 20.35 64.63 18.56 66.17C14.1 70.02 8.4 72.41 2.53 72.9C1.61 72.98 0.51 72.93 0 72.16C3.68 70.78 7.35 69.25 10.53 66.94C13.71 64.64 16.4 61.48 17.49 57.7C18.57 54.03 18.06 50.06 17.05 46.37Z" id="a4VVlRwLG"></path><path d="M44.98 2.61C41.85 3.96 38.57 5.42 36.59 8.2C35 10.44 34.47 13.31 34.67 16.05C34.86 18.79 35.73 21.44 36.72 24.01C39.05 30.05 42.11 35.8 44.4 41.86C46.43 47.22 47.84 53.22 45.93 58.61C43.97 64.13 38.9 67.96 33.6 70.44C29.92 72.17 25.72 73.41 21.83 72.24C25.35 70.8 28.9 69.33 32.04 67.18C35.18 65.03 37.92 62.12 39.23 58.55C40.84 54.13 40.09 49.19 38.67 44.7C36.07 36.52 31.34 29.12 28.94 20.87C27.92 17.36 27.36 13.49 28.77 10.11C30.52 5.9 34.91 3.42 39.21 1.89C42.14 0.85 45.4 0.1 48.31 1.19C47.2 1.66 46.09 2.14 44.98 2.61Z" id="b6Y0Tkzdq6"></path><path d="M61.26 58.22C62.6 54.36 62.1 50.09 61.02 46.14C58.57 37.19 53.28 29.24 50.76 20.31C49.98 17.54 49.47 14.6 50.14 11.81C51.13 7.65 54.64 4.44 58.56 2.72C62.49 1.01 66.83 0.56 71.1 0.18C72.69 0.04 74.3 -0.1 75.88 0.09C80.06 0.56 83.68 3.18 86.71 6.09C93.39 12.52 98.23 21 99.61 30.17C100.99 39.34 98.73 49.14 92.89 56.33C88.81 61.36 83.18 64.97 77.17 67.37C71.16 69.78 64.76 71.04 58.35 71.94C53.72 72.59 48.95 73.06 44.43 71.86C47.86 70.41 51.32 68.93 54.36 66.78C57.4 64.63 60.05 61.75 61.26 58.22M72.27 65.66C77.88 62.84 82.92 58.72 86.24 53.4C90.23 47.02 91.57 39.18 90.67 31.72C89.24 19.8 82.07 8.7 71.79 2.49C71.16 2.11 70.49 1.74 69.75 1.69C69.08 1.65 68.44 1.87 67.81 2.11C63.84 3.57 59.68 5.6 57.74 9.36C55.72 13.3 56.65 18.08 58.08 22.26C60.3 28.74 63.59 34.79 66.09 41.16C68.32 46.83 69.89 53.25 67.69 58.93C65.46 64.66 59.87 68.34 54.3 70.96C60.51 70.06 66.67 68.48 72.27 65.66Z" id="a2V4lypvx8"></path></defs><g><g><g><use xlink:href="#a4VVlRwLG" opacity="1" fill="#035496" fill-opacity="1"></use><g><use xlink:href="#a4VVlRwLG" opacity="1" fill-opacity="0" stroke="#000000" stroke-width="0" stroke-opacity="0"></use></g></g><g><use xlink:href="#b6Y0Tkzdq6" opacity="1" fill="#057cde" fill-opacity="1"></use><g><use xlink:href="#b6Y0Tkzdq6" opacity="1" fill-opacity="0" stroke="#000000" stroke-width="1" stroke-opacity="0"></use></g></g><g><use xlink:href="#a2V4lypvx8" opacity="1" fill="#59b1f9" fill-opacity="1"></use><g><use xlink:href="#a2V4lypvx8" opacity="1" fill-opacity="0" stroke="#000000" stroke-width="1" stroke-opacity="0"></use></g></g></g></g></svg>